<mxfile host="Electron" modified="2023-05-04T13:40:50.540Z" agent="Mozilla/5.0 (Windows NT 10.0; Win64; x64) AppleWebKit/537.36 (KHTML, like Gecko) draw.io/21.2.1 Chrome/112.0.5615.87 Electron/24.1.2 Safari/537.36" etag="6O11bhjqBgKX5Iw8kf5g" version="21.2.1" type="device">
  <diagram name="Page-1" id="sLsSbaoLfI2EuzH5W0pp">
    <mxGraphModel dx="3280" dy="2093" grid="1" gridSize="10" guides="1" tooltips="1" connect="1" arrows="1" fold="1" page="0" pageScale="1" pageWidth="850" pageHeight="1100" math="0" shadow="0">
      <root>
        <mxCell id="0" />
        <mxCell id="1" parent="0" />
        <mxCell id="9x6esN3wTOENjO-a5tKF-1" value="&lt;font style=&quot;font-size: 50px;&quot;&gt;Start&lt;/font&gt;" style="ellipse;whiteSpace=wrap;html=1;" parent="1" vertex="1">
          <mxGeometry x="178.3" y="-280" width="330.01" height="220" as="geometry" />
        </mxCell>
        <mxCell id="9x6esN3wTOENjO-a5tKF-3" value="" style="endArrow=classic;html=1;rounded=0;exitX=0.5;exitY=1;exitDx=0;exitDy=0;entryX=0.5;entryY=0;entryDx=0;entryDy=0;" parent="1" source="9x6esN3wTOENjO-a5tKF-1" target="velyt0n18HxW9s549crv-5" edge="1">
          <mxGeometry width="50" height="50" relative="1" as="geometry">
            <mxPoint x="343.31500000000005" y="-11.25" as="sourcePoint" />
            <mxPoint x="343.30999999999995" y="150" as="targetPoint" />
          </mxGeometry>
        </mxCell>
        <mxCell id="velyt0n18HxW9s549crv-5" value="&lt;font style=&quot;font-size: 50px;&quot;&gt;Enter username and&lt;br&gt;Password&lt;/font&gt;" style="shape=parallelogram;perimeter=parallelogramPerimeter;whiteSpace=wrap;html=1;fixedSize=1;" parent="1" vertex="1">
          <mxGeometry x="31.620000000000005" y="150" width="623.37" height="170" as="geometry" />
        </mxCell>
        <mxCell id="velyt0n18HxW9s549crv-8" value="" style="endArrow=classic;html=1;rounded=0;exitX=0.5;exitY=1;exitDx=0;exitDy=0;entryX=0.5;entryY=0;entryDx=0;entryDy=0;" parent="1" source="velyt0n18HxW9s549crv-5" target="velyt0n18HxW9s549crv-9" edge="1">
          <mxGeometry width="50" height="50" relative="1" as="geometry">
            <mxPoint x="342.68" y="250" as="sourcePoint" />
            <mxPoint x="342.68" y="460" as="targetPoint" />
          </mxGeometry>
        </mxCell>
        <mxCell id="velyt0n18HxW9s549crv-9" value="&lt;font style=&quot;font-size: 50px;&quot;&gt;Is Username&lt;br&gt;and Password&lt;br&gt;correct ?&lt;/font&gt;" style="rhombus;whiteSpace=wrap;html=1;" parent="1" vertex="1">
          <mxGeometry x="98.3" y="530" width="490" height="490" as="geometry" />
        </mxCell>
        <mxCell id="velyt0n18HxW9s549crv-10" value="" style="endArrow=classic;html=1;rounded=0;exitX=0.5;exitY=1;exitDx=0;exitDy=0;entryX=0.5;entryY=0;entryDx=0;entryDy=0;" parent="1" source="velyt0n18HxW9s549crv-9" target="velyt0n18HxW9s549crv-21" edge="1">
          <mxGeometry width="50" height="50" relative="1" as="geometry">
            <mxPoint x="343.08" y="720" as="sourcePoint" />
            <mxPoint x="343.29999999999995" y="1230" as="targetPoint" />
          </mxGeometry>
        </mxCell>
        <mxCell id="velyt0n18HxW9s549crv-15" value="&lt;font style=&quot;font-size: 50px;&quot;&gt;YES&lt;/font&gt;" style="edgeLabel;html=1;align=center;verticalAlign=middle;resizable=0;points=[];" parent="velyt0n18HxW9s549crv-10" vertex="1" connectable="0">
          <mxGeometry x="-0.3333" y="3" relative="1" as="geometry">
            <mxPoint x="-3" y="30" as="offset" />
          </mxGeometry>
        </mxCell>
        <mxCell id="velyt0n18HxW9s549crv-13" value="" style="endArrow=classic;html=1;rounded=0;exitX=1;exitY=0.5;exitDx=0;exitDy=0;" parent="1" source="velyt0n18HxW9s549crv-9" edge="1">
          <mxGeometry width="50" height="50" relative="1" as="geometry">
            <mxPoint x="460" y="370" as="sourcePoint" />
            <mxPoint x="343" y="40" as="targetPoint" />
            <Array as="points">
              <mxPoint x="800" y="775" />
              <mxPoint x="800" y="40" />
            </Array>
          </mxGeometry>
        </mxCell>
        <mxCell id="velyt0n18HxW9s549crv-14" value="&lt;font style=&quot;font-size: 50px;&quot;&gt;NO&lt;/font&gt;" style="edgeLabel;html=1;align=center;verticalAlign=middle;resizable=0;points=[];" parent="velyt0n18HxW9s549crv-13" vertex="1" connectable="0">
          <mxGeometry x="-0.1466" y="-4" relative="1" as="geometry">
            <mxPoint y="-1" as="offset" />
          </mxGeometry>
        </mxCell>
        <mxCell id="velyt0n18HxW9s549crv-16" value="" style="endArrow=classic;html=1;rounded=0;exitX=0.5;exitY=1;exitDx=0;exitDy=0;entryX=0.5;entryY=0;entryDx=0;entryDy=0;" parent="1" source="velyt0n18HxW9s549crv-21" target="velyt0n18HxW9s549crv-24" edge="1">
          <mxGeometry width="50" height="50" relative="1" as="geometry">
            <mxPoint x="343.29999999999995" y="1540" as="sourcePoint" />
            <mxPoint x="343.3000000000002" y="1750" as="targetPoint" />
          </mxGeometry>
        </mxCell>
        <mxCell id="velyt0n18HxW9s549crv-22" value="" style="endArrow=classic;html=1;rounded=0;exitX=0.5;exitY=1;exitDx=0;exitDy=0;entryX=0.5;entryY=0;entryDx=0;entryDy=0;" parent="1" target="velyt0n18HxW9s549crv-21" edge="1">
          <mxGeometry width="50" height="50" relative="1" as="geometry">
            <mxPoint x="343.29999999999995" y="1540" as="sourcePoint" />
            <mxPoint x="343" y="1750" as="targetPoint" />
          </mxGeometry>
        </mxCell>
        <mxCell id="velyt0n18HxW9s549crv-21" value="&lt;font style=&quot;font-size: 50px;&quot;&gt;Choose programme (BCA, BIT, etc)&lt;/font&gt;" style="shape=parallelogram;perimeter=parallelogramPerimeter;whiteSpace=wrap;html=1;fixedSize=1;" parent="1" vertex="1">
          <mxGeometry x="-145.04999999999998" y="1230" width="976.7" height="290" as="geometry" />
        </mxCell>
        <mxCell id="velyt0n18HxW9s549crv-24" value="&lt;font style=&quot;font-size: 50px;&quot;&gt;Take model test&lt;/font&gt;" style="shape=parallelogram;perimeter=parallelogramPerimeter;whiteSpace=wrap;html=1;fixedSize=1;" parent="1" vertex="1">
          <mxGeometry x="-145.04999999999998" y="1750" width="976.7" height="290" as="geometry" />
        </mxCell>
        <mxCell id="velyt0n18HxW9s549crv-25" value="" style="endArrow=classic;html=1;rounded=0;exitX=0.5;exitY=1;exitDx=0;exitDy=0;entryX=0.5;entryY=0;entryDx=0;entryDy=0;" parent="1" source="velyt0n18HxW9s549crv-24" target="velyt0n18HxW9s549crv-26" edge="1">
          <mxGeometry width="50" height="50" relative="1" as="geometry">
            <mxPoint x="341.88" y="2040" as="sourcePoint" />
            <mxPoint x="341.88" y="2270" as="targetPoint" />
          </mxGeometry>
        </mxCell>
        <mxCell id="velyt0n18HxW9s549crv-26" value="&lt;font style=&quot;font-size: 50px;&quot;&gt;Stop&lt;/font&gt;" style="ellipse;whiteSpace=wrap;html=1;" parent="1" vertex="1">
          <mxGeometry x="178.29999999999995" y="2270" width="330.01" height="220" as="geometry" />
        </mxCell>
      </root>
    </mxGraphModel>
  </diagram>
</mxfile>
